<?xml version="1.0" encoding="UTF-8" standalone="no"?>
<!-- Created with Inkscape (http://www.inkscape.org/) -->

<svg
   width="338.28177mm"
   height="30mm"
   viewBox="0 0 338.28177 30"
   version="1.1"
   id="svg5"
   xmlns="http://www.w3.org/2000/svg"
   xmlns:svg="http://www.w3.org/2000/svg">
  <defs
     id="defs2" />
  <g
     id="layer1"
     style="fill:#ffffff">
    <g
       aria-label="MediaCow Touch 2"
       id="text7316"
       style="font-size:39.6301px;line-height:1.25;font-family:'FONTSPRING DEMO - Foundation Sans Light';-inkscape-font-specification:'FONTSPRING DEMO - Foundation Sans Light, ';stroke-width:0.990755;fill:#ffffff">
      <path
         d="M 0.03963015,29.405535 H 9.4319639 V 28.256262 C 6.8560074,28.058111 5.904885,27.939221 5.6671044,26.274757 5.4689539,24.966964 5.3896937,23.46102 5.3896937,21.360624 V 5.6274746 h 0.07926 L 15.69352,28.929974 h 1.070012 L 27.106989,5.6274746 h 0.11889 V 25.719935 c 0,2.219286 -0.07926,2.298546 -3.566709,2.536327 v 1.149273 H 34.715968 V 28.256262 C 31.268149,28.018481 31.149259,27.939221 31.149259,25.719935 V 5.6671047 c 0,-2.2192856 0.11889,-2.2985458 3.566709,-2.5363264 V 1.9815054 h -7.96565 C 25.402894,5.5085843 23.77806,8.9960331 22.192856,12.483482 l -4.755612,10.620867 h -0.07926 L 12.681632,12.523112 C 11.136058,8.9960331 9.471594,5.5085843 8.0449104,1.9815054 H 4.863739e-8 V 3.1307783 C 3.4874489,3.3685589 3.5667091,3.4478191 3.5667091,5.6671047 V 21.360624 c 0,2.100396 -0.07926,3.60634 -0.2774107,4.914133 -0.2377806,1.664464 -1.188903,1.822984 -3.24966825,1.981505 z"
         style="font-family:Heuristica;-inkscape-font-specification:'Heuristica, Normal';fill:#ffffff"
         id="path24324" />
      <path
         d="m 36.855899,19.854681 c 0,6.261555 2.694846,10.026415 9.154553,10.026415 4.398941,0 6.657857,-2.457066 7.727869,-5.587844 L 52.549418,23.65917 c -1.109642,2.298546 -2.615586,4.200791 -5.746364,4.200791 -4.914133,0 -5.904885,-4.755612 -5.825625,-8.877143 h 11.413469 c 0.832232,0 1.585204,-0.19815 1.585204,-1.505943 0,-2.338176 -0.752972,-7.9656506 -8.00528,-7.9656506 -6.182296,0 -9.114923,4.3989416 -9.114923,10.3434566 z m 4.16116,-2.377806 c 0,-1.624835 0.594452,-6.578597 4.715982,-6.578597 3.685599,0 4.121531,3.764859 4.121531,5.310433 0,0.752972 -0.237781,1.268164 -1.347424,1.268164 z"
         style="font-family:Heuristica;-inkscape-font-specification:'Heuristica, Normal';fill:#ffffff"
         id="path24326" />
      <path
         d="m 57.225768,20.092461 c 0,5.865255 3.051518,9.788635 8.282691,9.788635 2.140025,0 4.00264,-0.951122 6.142665,-2.694847 v 1.941875 l 0.317041,0.277411 h 6.420076 V 28.256262 C 75.574504,28.058111 75.415984,27.978851 75.415984,25.957716 V 0.23778096 L 75.138573,3.5858154e-7 68.916647,0.99075286 V 1.9815054 l 1.505944,0.1585204 c 1.030383,0.1188903 1.268163,0.3170408 1.268163,1.8229846 V 10.462347 C 70.581112,9.8678953 69.114798,9.5112244 67.291813,9.5112244 c -3.249668,0 -5.667104,1.0303826 -7.331568,2.7344766 -1.704094,1.783355 -2.734477,4.398941 -2.734477,7.84676 z m 4.12153,-0.475561 c 0,-5.151913 1.862615,-8.718622 5.904885,-8.718622 1.862615,0 3.368559,0.871862 4.081901,2.496696 0.31704,0.673712 0.35667,1.228533 0.35667,2.298546 v 6.974898 c 0,0.871862 -0.03963,1.545574 -0.27741,2.219285 -0.792602,2.060766 -2.536327,2.853368 -4.597092,2.853368 -3.645969,0 -5.468954,-3.566709 -5.468954,-8.124171 z"
         style="font-family:Heuristica;-inkscape-font-specification:'Heuristica, Normal';fill:#ffffff"
         id="path24328" />
      <path
         d="m 82.628642,3.4874492 c 0,1.4266836 0.990753,2.4174361 2.417436,2.4174361 1.426684,0 2.417437,-0.9907525 2.417437,-2.4174361 0,-1.4266836 -0.990753,-2.4174361 -2.417437,-2.4174361 -1.426683,0 -2.417436,0.9907525 -2.417436,2.4174361 z M 80.250836,29.405535 h 9.669745 V 28.256262 C 87.106844,28.058111 86.948323,27.978851 86.948323,25.957716 V 9.749005 L 86.670912,9.5112244 80.448987,10.501977 v 0.990752 l 1.505944,0.198151 c 1.030382,0.15852 1.268163,0.356671 1.268163,1.783354 v 12.483482 c 0,2.021135 -0.118891,2.100395 -2.972258,2.298546 z"
         style="font-family:Heuristica;-inkscape-font-specification:'Heuristica, Normal';fill:#ffffff"
         id="path24330" />
      <path
         d="m 92.456851,24.253622 c 0,2.972257 1.981505,5.627474 5.706734,5.627474 2.298545,0 4.636725,-1.545574 5.904885,-2.377806 0.55482,1.466314 1.1889,2.377806 2.57596,2.377806 1.46631,0 3.1704,-0.435931 4.67635,-1.188903 L 111.083,27.741071 c -0.55482,0.11889 -1.42669,0.19815 -2.02114,0.03963 -0.71334,-0.158521 -1.38705,-0.911493 -1.38705,-3.408189 v -9.590484 c 0,-2.298546 -0.51519,-5.2708036 -6.49934,-5.2708036 -4.478198,0 -8.005277,2.3381756 -8.005277,4.5178316 0,1.268163 1.466313,1.862615 2.219285,1.862615 0.832232,0 1.070013,-0.435932 1.268163,-1.109643 0.871863,-2.932628 2.496697,-3.88375 4.081899,-3.88375 1.54558,0 3.36856,0.792602 3.36856,3.96301 v 1.664464 c -0.99075,1.030383 -4.834872,2.021135 -7.96565,3.011888 -2.853367,0.871862 -3.685599,2.853367 -3.685599,4.715982 z m 4.00264,-0.554822 c 0,-1.862614 0.871862,-2.813737 3.091148,-3.645969 1.585201,-0.594451 3.685601,-1.347423 4.557461,-1.902245 v 5.587844 c 0,3.210039 -2.45707,4.042271 -4.00264,4.042271 -2.457066,0 -3.645969,-1.743725 -3.645969,-4.081901 z"
         style="font-family:Heuristica;-inkscape-font-specification:'Heuristica, Normal';fill:#ffffff"
         id="path24332" />
      <path
         d="m 113.14371,15.891671 c 0,4.636721 1.38706,8.361951 3.76486,10.739757 2.45707,2.457066 6.34082,3.368558 10.77939,3.368558 3.17041,0 6.81638,-0.871862 8.71862,-1.902245 l 0.55482,-6.618226 h -1.1889 c -1.10964,4.12153 -3.13078,7.133418 -8.32232,7.133418 -8.1638,0 -9.86789,-8.044911 -9.86789,-12.840153 0,-6.4993362 2.57595,-12.9986726 9.94715,-12.9986726 4.04227,0 6.85601,1.6644642 7.60898,6.340816 h 1.1889 V 2.9326278 c -1.78335,-0.8322321 -4.79524,-1.5455739 -8.40158,-1.5455739 -4.8745,0 -8.79788,1.4266836 -11.17569,4.0819003 -2.25891,2.5363264 -3.60634,5.9445148 -3.60634,10.4227168 z"
         style="font-family:Heuristica;-inkscape-font-specification:'Heuristica, Normal';fill:#ffffff"
         id="path24334" />
      <path
         d="m 139.81465,19.69616 c 0,6.420076 3.13078,10.184936 9.51123,10.184936 6.38044,0 9.51122,-3.76486 9.51122,-10.184936 0,-6.420076 -3.13078,-10.1849356 -9.51122,-10.1849356 -6.38045,0 -9.51123,3.7648596 -9.51123,10.1849356 z m 4.12153,0 c 0,-5.468954 1.74373,-8.797882 5.3897,-8.797882 3.64597,0 5.38969,3.328928 5.38969,8.797882 0,5.468954 -1.74372,8.797882 -5.38969,8.797882 -3.64597,0 -5.3897,-3.328928 -5.3897,-8.797882 z"
         style="font-family:Heuristica;-inkscape-font-specification:'Heuristica, Normal';fill:#ffffff"
         id="path24336" />
      <path
         d="m 159.47115,11.136059 c 1.62483,0.07926 2.14002,0.19815 2.61558,1.704094 1.66447,5.231173 3.40819,10.581237 5.07266,16.565382 h 3.01188 l 4.67636,-15.099068 h 0.11889 c 1.66446,5.033022 3.28929,10.066045 4.8745,15.099068 h 3.01189 c 1.66446,-5.825625 4.00264,-12.879783 4.99339,-15.970931 0.67371,-2.021135 1.10964,-2.179655 3.09115,-2.298545 V 9.9867856 h -7.80713 v 1.1492734 l 2.25891,0.19815 c 0.67371,0.07926 0.71334,0.594452 0.55482,1.307793 -0.51519,2.338176 -2.33817,8.758252 -3.56671,13.236454 h -0.0793 c -1.70409,-5.151913 -3.32892,-10.264196 -4.95376,-15.416109 h -3.01189 l -4.59709,15.416109 h -0.0793 c -1.42668,-4.557462 -2.65521,-9.154553 -3.92338,-13.434604 -0.23778,-0.752972 0,-1.109643 0.71334,-1.188903 l 1.38706,-0.11889 V 9.9867856 h -8.36195 z"
         style="font-family:Heuristica;-inkscape-font-specification:'Heuristica, Normal';fill:#ffffff"
         id="path24338" />
      <path
         d="m 199.77488,8.560102 h 1.18891 c 0.47556,-4.3196809 1.30779,-5.1915431 5.94451,-5.1915431 h 2.33818 V 25.719935 c 0,2.219286 -0.11889,2.298546 -4.35931,2.536327 v 1.149273 h 12.642 v -1.149273 c -4.24042,-0.237781 -4.35931,-0.317041 -4.35931,-2.536327 V 3.3685589 h 2.33817 c 4.63673,0 5.46896,0.8718622 5.94452,5.1915431 h 1.1889 V 1.9815054 h -22.86657 z"
         style="font-family:Heuristica;-inkscape-font-specification:'Heuristica, Normal';fill:#ffffff"
         id="path24340" />
      <path
         d="m 221.4921,19.69616 c 0,6.420076 3.13078,10.184936 9.51122,10.184936 6.38045,0 9.51123,-3.76486 9.51123,-10.184936 0,-6.420076 -3.13078,-10.1849356 -9.51123,-10.1849356 -6.38044,0 -9.51122,3.7648596 -9.51122,10.1849356 z m 4.12153,0 c 0,-5.468954 1.74372,-8.797882 5.38969,-8.797882 3.64597,0 5.3897,3.328928 5.3897,8.797882 0,5.468954 -1.74373,8.797882 -5.3897,8.797882 -3.64597,0 -5.38969,-3.328928 -5.38969,-8.797882 z"
         style="font-family:Heuristica;-inkscape-font-specification:'Heuristica, Normal';fill:#ffffff"
         id="path24342" />
      <path
         d="m 243.44717,11.492729 1.50594,0.198151 c 1.03038,0.15852 1.26817,0.356671 1.26817,1.783354 v 10.462347 c 0,4.557461 2.69484,5.944515 5.62747,5.944515 3.36856,0 6.10303,-2.298546 7.25231,-2.853367 l 0.3963,2.377806 h 6.34081 v -1.149273 c -2.73447,-0.198151 -2.97225,-0.277411 -2.97225,-2.298546 V 9.749005 l -0.27741,-0.2377806 -6.22193,0.9907526 v 0.990752 l 1.50594,0.198151 c 1.03039,0.15852 1.26817,0.356671 1.26817,1.783354 v 8.916773 c 0,1.109643 -0.11889,1.981505 -0.31704,2.377806 -0.9115,1.822985 -2.81374,2.972258 -4.87451,2.972258 -2.29854,0 -4.00264,-1.426684 -4.00264,-4.517832 V 9.749005 l -0.27741,-0.2377806 -6.22192,0.9907526 z"
         style="font-family:Heuristica;-inkscape-font-specification:'Heuristica, Normal';fill:#ffffff"
         id="path24344" />
      <path
         d="m 268.37447,19.894311 c 0,6.618226 3.24967,9.986785 9.19418,9.986785 2.77411,0 6.49934,-1.466314 7.60898,-5.706734 l -1.14927,-0.554822 c -1.22853,2.774107 -2.81374,4.200791 -5.70674,4.200791 -4.71598,0 -5.82562,-4.914133 -5.82562,-8.639362 0,-5.904885 2.33817,-8.282691 5.07265,-8.282691 1.82299,0 2.97226,1.307793 3.76486,3.447819 0.23778,0.634081 0.47556,1.030382 1.22853,1.030382 0.79261,0 2.33818,-0.515191 2.33818,-2.021135 0,-1.822984 -2.61559,-3.8441196 -6.89564,-3.8441196 -7.21268,0 -9.63011,5.1122826 -9.63011,10.3830866 z"
         style="font-family:Heuristica;-inkscape-font-specification:'Heuristica, Normal';fill:#ffffff"
         id="path24346" />
      <path
         d="m 286.92129,29.405535 h 9.63011 v -1.149273 c -2.73447,-0.198151 -2.97225,-0.356671 -2.97225,-2.298546 v -9.273443 c 0,-0.990753 0.0396,-1.545574 0.35667,-2.140026 0.83223,-1.585204 2.65521,-2.892997 4.75561,-2.892997 2.69485,0 4.16116,1.505944 4.16116,4.953762 v 9.352704 c 0,1.941875 -0.19815,2.100395 -2.97226,2.298546 v 1.149273 h 9.66975 v -1.149273 c -2.73448,-0.198151 -2.97226,-0.356671 -2.97226,-2.298546 V 15.81241 c 0,-4.00264 -2.17966,-6.3011856 -5.86526,-6.3011856 -2.89299,0 -4.67635,1.3474236 -7.17304,3.0118876 V 0.23778096 L 293.26211,3.5858154e-7 287.07981,0.99075286 V 1.9815054 l 1.50594,0.1981505 c 1.03039,0.1585204 1.26817,0.3566709 1.26817,1.7833545 V 25.957716 c 0,1.941875 -0.15852,2.100395 -2.93263,2.298546 z"
         style="font-family:Heuristica;-inkscape-font-specification:'Heuristica, Normal';fill:#ffffff"
         id="path24348" />
      <path
         d="m 320.13118,29.009234 0.3963,0.396301 h 16.40686 l 1.34742,-5.231173 -1.10964,-0.198151 c -0.83223,2.140025 -1.62483,2.417436 -3.21004,2.417436 h -10.1453 c 0.63408,-2.060765 2.97225,-4.874502 6.65785,-7.529719 3.80449,-2.774107 6.73712,-4.557461 6.73712,-8.9960327 0,-5.5085839 -3.64597,-7.4108287 -7.80713,-7.4108287 -5.42932,0 -8.24306,3.2892983 -8.24306,5.3500635 0,1.3474234 1.50594,1.981505 2.17966,1.981505 0.71334,0 0.99075,-0.396301 1.14927,-1.0700127 0.63408,-2.6948468 2.17965,-4.8745023 4.63672,-4.8745023 3.05152,0 3.92338,2.5759565 3.92338,5.4689538 0,4.2404211 -2.14003,6.6182271 -5.58784,9.6697441 -4.87451,4.240421 -6.5786,6.935268 -7.33157,10.026416 z"
         style="font-family:Heuristica;-inkscape-font-specification:'Heuristica, Normal';fill:#ffffff"
         id="path24350" />
    </g>
  </g>
</svg>
