<svg width="360mm" height="50mm" viewBox="0 0 360 50" xmlns="http://www.w3.org/2000/svg">
    <g style="fill:#ffffff">
        <path d="M0 29.4h9.4v-1.1c-2.5-.2-3.5-.4-3.7-2q-.3-1.8-.3-5V5.7L15.8 29h1L27.2 5.6h.1v20.1c0 2.2 0 2.3-3.5 2.6v1.1h11v-1.1c-3.4-.3-3.6-.4-3.6-2.6v-20c0-2.3.2-2.3 3.6-2.6V2h-8q-2.1 5.3-4.5 10.5L17.4 23l-4.7-10.6L8 2H0v1c3.5.3 3.6.3 3.6 2.6v15.7q0 3-.3 4.9C3 27.9 2 28 0 28.3zm36.9-9.5c0 6.2 2.7 10 9.1 10 4.4 0 6.7-2.5 7.7-5.6l-1.2-.6c-1 2.3-2.6 4.2-5.7 4.2-5 0-5.9-4.8-5.8-9h11.4c.8 0 1.6-.1 1.6-1.4 0-2.4-.8-8-8-8-6.2 0-9.1 4.4-9.1 10.4m4.1-2.4c0-1.6.6-6.6 4.7-6.6 3.7 0 4.2 3.8 4.2 5.3q.1 1.3-1.4 1.3zM57.2 20c0 6 3 9.9 8.3 9.9q3 0 6.2-2.7v2l.3.2h6.4v-1.1c-2.8-.2-3-.3-3-2.3V.2l-.3-.2L69 1v1l1.5.1c1 .2 1.3.4 1.3 1.9v6.5q-1.7-1-4.4-1-5 0-7.3 2.7a11 11 0 0 0-2.8 7.9m4.1-.4c0-5.1 2-8.7 6-8.7q2.8 0 4 2.5c.4.7.4 1.2.4 2.3v7q0 1.2-.3 2.2-1.3 2.9-4.6 2.8c-3.6 0-5.5-3.5-5.5-8M82.6 3.5q.1 2.3 2.4 2.4 2.4-.2 2.5-2.4Q87.4 1.3 85 1q-2.2.1-2.4 2.4m-2.3 26h9.6v-1.2c-2.8-.2-3-.3-3-2.3V9.7l-.2-.2-6.3 1v1l1.6.2c1 .1 1.2.3 1.2 1.8V26c0 2-.1 2-3 2.3zm12.2-5.1c0 3 2 5.6 5.7 5.6 2.3 0 4.6-1.6 5.9-2.4q.7 2.3 2.5 2.4 2.3 0 4.7-1.2l-.2-1a5 5 0 0 1-2 0c-.8 0-1.4-.8-1.4-3.3v-9.6c0-2.3-.5-5.3-6.5-5.3-4.5 0-8 2.3-8 4.5 0 1.3 1.4 1.9 2.2 1.9q1 0 1.3-1.1c.8-3 2.5-3.9 4-3.9 1.6 0 3.4.8 3.4 4v1.6c-1 1-4.8 2-8 3-2.8 1-3.6 2.9-3.6 4.8m4-.6c0-1.9.8-2.8 3-3.6 1.6-.6 3.7-1.4 4.6-2v5.6c0 3.2-2.4 4-4 4-2.5 0-3.6-1.7-3.6-4m16.6-7.8q.1 7 3.8 10.7 3.9 3.6 10.8 3.4c3.2 0 6.8-.9 8.7-1.9l.6-6.6h-1.2c-1.1 4.1-3.2 7.1-8.3 7.1-8.2 0-10-8-10-12.8 0-6.5 2.7-13 10-13 4 0 6.9 1.6 7.6 6.3h1.2V3a21 21 0 0 0-8.4-1.5c-4.8 0-8.8 1.4-11.1 4A15 15 0 0 0 113 16m26.8 3.7c0 6.4 3.1 10.2 9.5 10.2s9.5-3.8 9.5-10.2-3-10.2-9.5-10.2-9.5 3.8-9.5 10.2m4.1 0c0-5.5 1.8-8.8 5.4-8.8s5.4 3.3 5.4 8.8-1.7 8.8-5.4 8.8c-3.6 0-5.4-3.3-5.4-8.8m15.6-8.6c1.6.1 2.1.2 2.6 1.7q2.6 7.8 5 16.6h3l4.7-15h.2l4.8 15h3c1.7-5.8 4-12.9 5-16 .7-2 1.2-2.1 3.1-2.3V10h-7.8v1l2.3.2q1 .2.5 1.3c-.5 2.4-2.3 8.8-3.5 13.3h-.1l-5-15.4h-3l-4.6 15.4q-2.2-7-4-13.5-.3-1 .7-1.1l1.4-.2v-1h-8.3zm40.3-2.5h1.2c.4-4.4 1.3-5.2 6-5.2h2.2v22.3c0 2.2 0 2.3-4.3 2.6v1.1h12.6v-1.1c-4.2-.3-4.3-.4-4.3-2.6V3.4h2.3c4.6 0 5.5.8 6 5.2h1.1V2h-22.8zm21.7 11.1c0 6.4 3.1 10.2 9.5 10.2s9.5-3.8 9.5-10.2-3.1-10.2-9.5-10.2-9.5 3.8-9.5 10.2m4.1 0c0-5.5 1.8-8.8 5.4-8.8s5.4 3.3 5.4 8.8-1.8 8.8-5.4 8.8-5.4-3.3-5.4-8.8m17.8-8.2 1.6.2c1 .1 1.2.3 1.2 1.8v10.4c0 4.6 2.7 6 5.6 6 3.4 0 6.2-2.3 7.3-2.9l.4 2.4h6.3v-1.1c-2.7-.2-3-.3-3-2.3V9.7l-.2-.2-6.2 1v1l1.5.2c1 .1 1.2.3 1.2 1.8v8.9q0 1.7-.3 2.4c-.9 1.8-2.8 3-4.9 3s-4-1.5-4-4.6V9.7l-.2-.2-6.3 1zm25 8.4q.1 10 9.2 10c2.7 0 6.5-1.5 7.6-5.7l-1.2-.6c-1.2 2.8-2.8 4.2-5.7 4.2-4.7 0-5.8-4.9-5.8-8.6 0-6 2.3-8.3 5-8.3q2.7.1 3.8 3.4.3 1 1.3 1c.8 0 2.3-.4 2.3-2 0-1.8-2.6-3.8-6.9-3.8-7.2 0-9.6 5.1-9.6 10.4m18.6 9.5h9.6v-1.1c-2.8-.2-3-.4-3-2.3v-9.3q0-1.4.3-2.2a6 6 0 0 1 4.8-2.8q4.1-.1 4.2 5V26c0 1.9-.2 2-3 2.3v1.1h9.7v-1.1c-2.8-.2-3-.4-3-2.3V15.8q-.2-6.1-5.9-6.3c-2.9 0-4.7 1.4-7.2 3V.2l-.2-.2-6.2 1v1l1.5.2c1 .1 1.3.3 1.3 1.8v22c0 1.9-.2 2-3 2.3zm33.1-.4.4.4H337l1.4-5.2-1.1-.2c-.9 2.1-1.7 2.4-3.2 2.4h-10.2c.7-2 3-4.9 6.7-7.5 3.8-2.8 6.7-4.6 6.7-9 0-5.5-3.6-7.4-7.8-7.4-5.4 0-8.2 3.2-8.2 5.3 0 1.4 1.5 2 2.1 2q1 0 1.2-1c.6-2.8 2.2-5 4.6-5 3 0 4 2.6 4 5.5 0 4.3-2.2 6.6-5.6 9.7-5 4.2-6.6 7-7.4 10" transform="translate(10.9 10)" aria-label="MediaCow Touch 2"/>
    </g>
</svg>

