<?xml version="1.0" encoding="UTF-8" standalone="no"?>
<svg width="512" height="512" viewBox="0 0 512 512" version="1.1" id="svg5" xmlns="http://www.w3.org/2000/svg" xmlns:svg="http://www.w3.org/2000/svg">
    <rect width="512" height="512" fill="#fff" />
    <path d="M 53.918921,416.00021 H 163.51436 V 402.5898 c -30.05782,-2.31214 -41.15609,-3.69942 -43.93066,-23.1214 -2.31214,-15.26012 -3.237,-32.83239 -3.237,-57.34107 V 138.54341 h 0.92486 l 119.30643,271.90767 h 12.48555 L 369.75725,138.54341 h 1.38729 v 234.451 c 0,25.89597 -0.92486,26.82082 -41.61853,29.59539 v 13.41041 H 458.54343 V 402.5898 c -40.23124,-2.77457 -41.61852,-3.69942 -41.61852,-29.59539 V 139.00584 c 0,-25.89597 1.38728,-26.82083 41.61852,-29.5954 V 96.000031 H 365.5954 C 349.87285,137.15612 330.9133,177.84979 312.41618,218.54345 l -55.49136,123.93071 h -0.92486 L 201.43346,219.00588 C 183.39876,177.84979 163.97679,137.15612 147.32938,96.000031 H 53.456493 v 13.410409 c 40.693665,2.77457 41.618521,3.69943 41.618521,29.5954 v 183.12149 c 0,24.50868 -0.924856,42.08095 -3.236996,57.34107 -2.774568,19.42198 -13.87284,21.27169 -37.919097,23.1214 z" />
</svg>
